HIERARCHY
ROOT Hips
{
	OFFSET 0.00000 0.00000 0.00000
	CHANNELS 6 Xposition Yposition Zposition Zrotation Yrotation Xrotation 
	JOINT LHipJoint
	{
		OFFSET 0 0 0
		CHANNELS 3 Zrotation Yrotation Xrotation
		JOINT LeftUpLeg
		{
			OFFSET 1.84395 -1.68683 0.74144
			CHANNELS 3 Zrotation Yrotation Xrotation
			JOINT LeftLeg
			{
				OFFSET 2.27037 -6.23779 0.00000
				CHANNELS 3 Zrotation Yrotation Xrotation
				JOINT LeftFoot
				{
					OFFSET 2.56918 -7.05877 0.00000
					CHANNELS 3 Zrotation Yrotation Xrotation
					JOINT LeftToeBase
					{
						OFFSET 0.22276 -0.61202 1.71784
						CHANNELS 3 Zrotation Yrotation Xrotation
						End Site
						{
							OFFSET 0.00000 -0.00000 0.91613
						}
					}
				}
			}
		}
	}
	JOINT RHipJoint
	{
		OFFSET 0 0 0
		CHANNELS 3 Zrotation Yrotation Xrotation
		JOINT RightUpLeg
		{
			OFFSET -1.76833 -1.68684 0.74144
			CHANNELS 3 Zrotation Yrotation Xrotation
			JOINT RightLeg
			{
				OFFSET -2.49360 -6.85110 0.00000
				CHANNELS 3 Zrotation Yrotation Xrotation
				JOINT RightFoot
				{
					OFFSET -2.55538 -7.02085 0.00000
					CHANNELS 3 Zrotation Yrotation Xrotation
					JOINT RightToeBase
					{
						OFFSET -0.21516 -0.59115 1.68050
						CHANNELS 3 Zrotation Yrotation Xrotation
						End Site
						{
							OFFSET -0.00000 -0.00000 0.89604
						}
					}
				}
			}
		}
	}
	JOINT LowerBack
	{
		OFFSET 0 0 0
		CHANNELS 3 Zrotation Yrotation Xrotation
		JOINT Spine
		{
			OFFSET 0.06382 1.72312 -0.19613
			CHANNELS 3 Zrotation Yrotation Xrotation
			JOINT Spine1
			{
				OFFSET -0.00055 1.73507 0.23859
				CHANNELS 3 Zrotation Yrotation Xrotation
				JOINT Neck
				{
					OFFSET 0 0 0
					CHANNELS 3 Zrotation Yrotation Xrotation
					JOINT Neck1
					{
						OFFSET 0.03638 1.65562 0.09633
						CHANNELS 3 Zrotation Yrotation Xrotation
						JOINT Head
						{
							OFFSET 0.06388 1.62807 -0.32386
							CHANNELS 3 Zrotation Yrotation Xrotation
							End Site
							{
								OFFSET 0.00995 1.67644 -0.12021
							}
						}
					}
				}
				JOINT LeftShoulder
				{
					OFFSET 0 0 0
					CHANNELS 3 Zrotation Yrotation Xrotation
					JOINT LeftArm
					{
						OFFSET 3.09648 1.42991 0.28122
						CHANNELS 3 Zrotation Yrotation Xrotation
						JOINT LeftForeArm
						{
							OFFSET 5.11878 -0.00000 -0.00000
							CHANNELS 3 Zrotation Yrotation Xrotation
							JOINT LeftHand
							{
								OFFSET 3.59971 -0.00000 0.00000
								CHANNELS 3 Zrotation Yrotation Xrotation
								JOINT LeftFingerBase
								{
									OFFSET 0 0 0
									CHANNELS 3 Zrotation Yrotation Xrotation
									JOINT LeftHandIndex1
									{
										OFFSET 0.62877 -0.00000 0.00000
										CHANNELS 3 Zrotation Yrotation Xrotation
										End Site
										{
											OFFSET 0.50693 -0.00000 0.00000
										}
									}
								}
								JOINT LThumb
								{
									OFFSET 0 0 0
									CHANNELS 3 Zrotation Yrotation Xrotation
									End Site
									{
										OFFSET 0.51467 -0.00000 0.51467
									}
								}
							}
						}
					}
				}
				JOINT RightShoulder
				{
					OFFSET 0 0 0
					CHANNELS 3 Zrotation Yrotation Xrotation
					JOINT RightArm
					{
						OFFSET -3.33565 1.14597 0.05047
						CHANNELS 3 Zrotation Yrotation Xrotation
						JOINT RightForeArm
						{
							OFFSET -5.49020 -0.00000 0.00000
							CHANNELS 3 Zrotation Yrotation Xrotation
							JOINT RightHand
							{
								OFFSET -3.20659 -0.00000 -0.00000
								CHANNELS 3 Zrotation Yrotation Xrotation
								JOINT RightFingerBase
								{
									OFFSET 0 0 0
									CHANNELS 3 Zrotation Yrotation Xrotation
									JOINT RightHandIndex1
									{
										OFFSET -0.69188 -0.00000 0.00000
										CHANNELS 3 Zrotation Yrotation Xrotation
										End Site
										{
											OFFSET -0.55781 -0.00000 0.00000
										}
									}
								}
								JOINT RThumb
								{
									OFFSET 0 0 0
									CHANNELS 3 Zrotation Yrotation Xrotation
									End Site
									{
										OFFSET -0.56633 -0.00000 0.56633
									}
								}
							}
						}
					}
				}
			}
		}
	}
}
MOTION
Frames: 6
Frame Time: .0083333
0.6026 17.4376 9.2125 0 0 0 0 0 0 -21 0 0 0 0 0 0 0 0 0 0 0 0 0 0 21 0 0 0 0 0 0 0 0 0 0 0 0 0 0 0 0 0 0 0 0 0 0 -16 0 0 21 0 0 11 0 0 0 -8 0 0 0 0 0 0 0 0 0 0 0 0 0 0 0 0 0 0 0 0 8 0 0 0 0 0 0 0 0 0 0 0 0 0 0 0 0 0
0.6026 17.4376 9.2125 -8.9266 -2.9129 10.4867 0.0000 0.0000 0.0000 -17.2794 -39.7166 21.4797 0.0506 -1.4520 -3.9934 -5.2358 42.1540 -41.3033 0.3609 3.8595 10.6817 0.0000 0.0000 0.0000 26.4797 24.6724 2.2515 -0.0259 -1.0384 2.8546 0.5896 -16.9477 -17.3036 -0.0136 0.7524 -2.0677 7.0752 2.0565 2.0468 0.4118 3.3379 -8.6020 -3.8522 1.0809 -9.9628 0.6557 -5.4735 -7.3319 8.0864 -8.4854 11.0051 1.8351 -3.6633 4.8441 0.0000 -0.0000 0.0000 -88.3013 13.4261 10.9103 13.9769 -22.7017 -2.8192 -0.0000 -0.0000 13.1672 17.5439 -2.7733 -0.8764 -7.1250 0.0000 -0.0000 -6.9224 27.0547 3.0369 0.0000 -0.0000 0.0000 93.6804 -14.0512 1.6964 -17.5013 27.5138 -4.3164 0.0000 0.0000 19.2182 28.3802 -36.3858 -17.7700 7.1250 -0.0000 -0.0000 64.5072 -55.1402 -22.8070
0.6081 17.4258 9.2112 -10.1924 -2.6554 10.1036 0.0000 0.0000 0.0000 -15.6810 -38.7875 21.5505 0.0601 -1.5823 -4.3527 -5.5331 42.1113 -39.7579 0.2497 3.2156 8.8797 0.0000 0.0000 0.0000 28.1852 24.1493 2.7101 -0.0255 -1.0308 2.8335 0.5583 -16.6711 -17.1937 -0.0071 0.5436 -1.4937 8.6484 2.0874 2.5153 0.7970 3.5811 -8.6163 -4.3578 1.0779 -10.2036 -0.5400 -5.6127 -7.3036 8.7587 -8.6924 11.7551 2.2095 -3.7459 5.1582 0.0000 0.0000 0.0000 -88.5055 13.6335 10.9682 13.9644 -22.6838 -2.8144 -0.0000 -0.0000 14.1046 17.1765 -2.4784 -0.7658 -7.1250 0.0000 -0.0000 -7.2193 27.3653 3.1159 0.0000 0.0000 0.0000 93.4807 -14.3946 1.4498 -17.5548 27.5834 -4.3411 0.0000 0.0000 19.1572 28.5405 -36.4623 -17.9119 7.1250 -0.0000 -0.0000 64.7175 -55.1499 -22.9567
0.6150 17.4199 9.2097 -10.8030 -2.5087 9.9514 0.0000 0.0000 0.0000 -14.9321 -38.4224 21.5674 0.0635 -1.6261 -4.4735 -5.5845 42.0026 -39.1856 0.2181 3.0065 8.2969 0.0000 0.0000 0.0000 29.0668 24.2119 3.1332 -0.0235 -0.9890 2.7186 0.5799 -16.8782 -17.3020 -0.0000 0.0064 -0.0177 9.5629 2.2002 2.7116 0.9721 3.8519 -8.7052 -4.7135 1.1319 -10.3670 -2.5092 -5.7735 -7.4978 10.3939 -9.0177 12.8368 2.9952 -3.8422 5.7056 0.0000 0.0000 0.0000 -88.6686 13.8270 11.2224 13.9082 -22.6033 -2.7927 -0.0000 -0.0000 14.6320 17.1083 -2.4000 -0.7384 -7.1250 0.0000 -0.0000 -7.2760 27.4473 3.1266 0.0000 0.0000 0.0000 93.3213 -14.7163 1.0972 -17.5745 27.6089 -4.3502 0.0000 0.0000 19.0339 28.4136 -36.7801 -17.9484 7.1250 -0.0000 -0.0000 64.9977 -55.3582 -23.5063
0.6160 17.4200 9.2124 -10.7791 -2.5523 9.9382 0.0000 0.0000 0.0000 -15.1092 -38.5532 21.7613 0.0632 -1.6225 -4.4636 -5.5090 42.0000 -39.5657 0.2437 3.1767 8.7710 0.0000 0.0000 0.0000 29.2959 25.1311 3.8107 -0.0199 -0.9115 2.5053 0.6827 -17.7969 -17.7412 -0.0005 -0.1460 0.4012 9.5091 2.1472 2.6365 1.0282 3.7739 -8.7377 -4.6123 1.0997 -10.3763 -3.3126 -5.7580 -7.8078 11.1347 -9.1096 13.7645 3.3414 -3.8317 6.1269 -0.0000 0.0000 0.0000 -88.8435 13.8985 10.7472 13.8546 -22.5264 -2.7721 -0.0000 -0.0000 15.0345 17.1739 -2.6165 -0.8083 -7.1250 0.0000 -0.0000 -7.2133 27.2220 3.1378 -0.0000 0.0000 0.0000 93.1685 -14.7890 1.3005 -17.5082 27.5228 -4.3196 0.0000 0.0000 19.1052 28.0363 -37.0142 -17.7751 7.1250 -0.0000 -0.0000 64.9918 -55.5727 -23.8824
0.6168 17.4199 9.2174 -10.6124 -2.6483 9.8785 0.0000 0.0000 0.0000 -15.6194 -38.7879 22.1780 0.0637 -1.6281 -4.4789 -5.4358 42.0998 -40.2084 0.2857 3.4375 9.4993 0.0000 0.0000 0.0000 29.2614 25.5806 4.2694 -0.0169 -0.8384 2.3043 0.7483 -18.2985 -17.8855 -0.0002 0.0872 -0.2395 9.2963 2.1106 2.5622 1.0669 3.7004 -8.7266 -4.4417 1.0860 -10.3388 -3.5444 -5.7287 -7.8319 11.2032 -9.1045 14.2600 3.4013 -3.8181 6.2997 0.0000 0.0000 0.0000 -89.0834 13.9308 10.3009 13.8292 -22.4901 -2.7625 -0.0000 -0.0000 15.2783 17.3051 -2.6011 -0.8101 -7.1250 0.0000 -0.0000 -7.1140 27.2366 3.0915 0.0000 0.0000 0.0000 92.8726 -14.7525 1.7425 -17.3488 27.3154 -4.2462 0.0000 0.0000 18.9045 27.7414 -37.4091 -17.7190 7.1250 -0.0000 -0.0000 65.2429 -55.8601 -24.5520
